<?xml version="1.0" standalone="no"?>
<!DOCTYPE svg PUBLIC "-//W3C//DTD SVG 20010904//EN"
 "http://www.w3.org/TR/2001/REC-SVG-20010904/DTD/svg10.dtd">
<svg version="1.0" xmlns="http://www.w3.org/2000/svg"
 width="512.000000pt" height="512.000000pt" viewBox="0 0 512.000000 512.000000"
 preserveAspectRatio="xMidYMid meet">

<g transform="translate(0.000000,512.000000) scale(0.100000,-0.100000)"
fill="#000000" stroke="none">
<path d="M520 3851 c-51 -16 -89 -41 -129 -87 -73 -83 -72 -71 -69 -770 l3
-619 29 -53 c32 -57 81 -102 143 -130 36 -16 162 -17 2063 -17 l2025 0 46 21
c55 26 111 79 141 137 l23 42 3 619 c3 699 4 687 -69 770 -23 26 -60 57 -83
69 l-41 22 -2030 2 c-1117 1 -2041 -2 -2055 -6z m4059 -166 c62 -31 61 -24 61
-673 l0 -589 -23 -34 c-34 -51 -68 -58 -274 -58 l-182 -1 -21 73 c-51 174 -62
202 -101 239 -27 25 -53 39 -89 47 -69 15 -2715 15 -2780 0 -83 -19 -126 -67
-157 -173 -8 -28 -23 -81 -34 -118 l-20 -68 -182 1 c-206 0 -240 7 -274 58
l-23 34 0 594 c0 649 -1 635 58 667 41 23 3998 24 4041 1z m-656 -1157 c13
-10 66 -160 67 -190 0 -5 -643 -8 -1430 -8 -786 0 -1430 3 -1430 8 1 30 54
180 67 190 25 18 2701 18 2726 0z"/>
<path d="M761 3434 c-24 -30 -26 -52 -10 -87 18 -41 49 -47 225 -47 l166 0 30
30 c25 26 29 36 24 63 -12 63 -27 67 -231 67 l-184 0 -20 -26z"/>
<path d="M1581 1941 c-11 -11 -22 -35 -25 -53 -30 -196 -66 -333 -126 -474
-11 -26 -11 -37 -1 -62 28 -67 115 -63 150 7 57 111 131 399 131 508 0 39 -5
54 -23 71 -29 28 -80 29 -106 3z"/>
<path d="M3432 1940 c-30 -28 -29 -88 3 -245 41 -202 106 -368 151 -385 38
-15 50 -12 83 16 36 30 39 59 12 112 -44 88 -88 253 -116 445 -4 21 -15 47
-26 58 -25 25 -79 25 -107 -1z"/>
<path d="M2068 1900 c-22 -17 -26 -30 -31 -104 -8 -92 -50 -271 -91 -379 -32
-84 -32 -102 -1 -132 33 -34 86 -34 113 0 29 36 110 290 128 401 19 112 13
176 -21 210 -29 29 -64 31 -97 4z"/>
<path d="M2513 1896 l-28 -24 -3 -254 c-3 -276 -1 -309 29 -339 27 -27 80 -25
107 4 22 23 22 29 22 309 l0 287 -26 20 c-35 28 -67 26 -101 -3z"/>
<path d="M2953 1896 c-27 -23 -28 -28 -27 -108 2 -93 27 -211 80 -370 43 -130
62 -158 110 -158 38 0 84 36 84 66 0 9 -18 69 -39 133 -46 134 -81 296 -81
369 0 43 -4 54 -26 71 -35 28 -67 26 -101 -3z"/>
</g>
</svg>
