<?xml version="1.0" encoding="UTF-8"?>
<svg version="1.1" xmlns="http://www.w3.org/2000/svg" width="512" height="512">
<path d="M0 0 C4.71669988 2.79680744 8.42236924 6.13730374 12.25079346 9.99682617 C12.85070752 10.59362025 13.45062158 11.19041433 14.06871486 11.80529308 C16.06783309 13.79646522 18.05976325 15.79467193 20.05175781 17.79296875 C21.48738922 19.22588886 22.92344549 20.65838342 24.3598938 22.09048462 C28.2526676 25.97415041 32.13910016 29.8641043 36.02414799 33.75549698 C40.09080197 37.82721718 44.16233642 41.8940524 48.23309326 45.96166992 C55.06589939 52.79083906 61.89448104 59.62421104 68.72070312 66.45996094 C76.61614006 74.3662906 84.51876797 82.26537771 92.42515302 90.16075802 C99.2127967 96.93933164 105.99654245 103.72178767 112.77703357 110.50751591 C116.82706337 114.56066582 120.87843731 118.61244734 124.93332672 122.66073608 C128.74305745 126.46469779 132.54787812 130.27350288 136.34893417 134.08613205 C137.74605318 135.48589963 139.14488448 136.88396051 140.54552841 138.28020096 C142.45405516 140.18327897 144.35634033 142.09238362 146.25714111 144.00317383 C146.81530116 144.55687243 147.37346121 145.11057104 147.9485352 145.68104839 C152.58632532 150.36637316 154.29123511 153.29107941 154.375 159.875 C154.40335937 160.88304687 154.43171875 161.89109375 154.4609375 162.9296875 C153.49247117 169.38065816 148.46047055 173.82941154 144.00317383 178.25079346 C143.40637975 178.85070752 142.80958567 179.45062158 142.19470692 180.06871486 C140.20353478 182.06783309 138.20532807 184.05976325 136.20703125 186.05175781 C134.77411114 187.48738922 133.34161658 188.92344549 131.90951538 190.3598938 C128.02584959 194.2526676 124.1358957 198.13910016 120.24450302 202.02414799 C116.17278282 206.09080197 112.1059476 210.16233642 108.03833008 214.23309326 C101.20916094 221.06589939 94.37578896 227.89448104 87.54003906 234.72070312 C79.6337094 242.61614006 71.73462229 250.51876797 63.83924198 258.42515302 C57.06066836 265.2127967 50.27821233 271.99654245 43.49248409 278.77703357 C39.43933418 282.82706337 35.38755266 286.87843731 31.33926392 290.93332672 C27.53530221 294.74305745 23.72649712 298.54787812 19.91386795 302.34893417 C18.51410037 303.74605318 17.11603949 305.14488448 15.71979904 306.54552841 C13.81672103 308.45405516 11.90761638 310.35634033 9.99682617 312.25714111 C9.44312757 312.81530116 8.88942896 313.37346121 8.31895161 313.9485352 C3.63362684 318.58632532 0.70892059 320.29123511 -5.875 320.375 C-11.08266907 320.27363418 -14.10580633 319.69948398 -18 316 C-22.41415841 311.35351746 -22.46758261 307.11206934 -22.53125 301 C-21.48824697 295.11010055 -17.27016825 291.02067006 -13.15313721 286.91262817 C-12.68011099 286.4378931 -12.20708477 285.96315803 -11.71972442 285.47403705 C-10.14760418 283.89864595 -8.56848734 282.3304689 -6.98925781 280.76220703 C-5.85524749 279.62876135 -4.72167836 278.49487411 -3.58851624 277.36058044 C-0.52099845 274.29249018 2.55263493 271.23059413 5.62742138 268.16979074 C8.843436 264.966301 12.05376633 261.75712504 15.26470947 258.54855347 C21.34149481 252.47797772 27.42335921 246.41251714 33.50707459 240.34888732 C40.43480992 233.44352717 47.3568492 226.53246922 54.27842093 219.62093186 C68.51262793 205.40761508 82.75395652 191.20145238 97 177 C96.33151594 176.99940291 95.66303188 176.99880582 94.97429073 176.99819064 C55.36768157 176.96230841 15.76115073 176.90568749 -23.8453877 176.82207905 C-28.59939879 176.81206141 -33.35341021 176.80221731 -38.10742188 176.79248047 C-39.0538729 176.7905391 -40.00032392 176.78859772 -40.97545527 176.78659752 C-56.30676586 176.75556372 -71.63806147 176.73859302 -86.96939756 176.72680578 C-102.6969819 176.71440137 -118.42448756 176.68691603 -134.15202224 176.64538693 C-143.85929928 176.62023118 -153.56644586 176.60688423 -163.27375595 176.60857043 C-169.92750411 176.60860015 -176.58111923 176.59400107 -183.23481555 176.56783572 C-187.0755474 176.55316618 -190.9160064 176.54500684 -194.75676155 176.55419731 C-198.91941069 176.56398963 -203.08133594 176.54300805 -207.243927 176.51898193 C-208.45988056 176.52674235 -209.67583412 176.53450277 -210.92863476 176.54249835 C-217.25298989 176.47763565 -221.22530911 176.31295814 -226 172 C-229.62833663 168.18069828 -230.31000458 165.11720994 -230.5 160 C-230.31000458 154.88279006 -229.62833663 151.81930172 -226 148 C-220.33274604 142.88079341 -214.61095898 143.43400045 -207.243927 143.48101807 C-205.94431435 143.47351681 -204.64470171 143.46601556 -203.30570686 143.458287 C-199.70484299 143.4380361 -196.10437329 143.44257802 -192.50347853 143.45119452 C-188.61802196 143.45613935 -184.7326644 143.4380545 -180.84724426 143.42277527 C-174.11764381 143.39945937 -167.38815113 143.39071489 -160.65851212 143.39188385 C-150.92862594 143.39355288 -141.19888346 143.37322055 -131.46903561 143.34752855 C-115.6828146 143.30644152 -99.89661942 143.2831331 -84.11035156 143.27099609 C-68.7760164 143.25916849 -53.44172989 143.23897347 -38.10742188 143.20751953 C-37.16212062 143.20558343 -36.21681936 143.20364733 -35.24287261 143.20165256 C-30.50054554 143.19188801 -25.75821883 143.18195889 -21.01589227 143.17194796 C18.32271536 143.08911801 57.66132255 143.03513721 97 143 C96.39885691 142.40070049 95.79771381 141.80140099 95.17835426 141.18394089 C80.55947523 126.60920801 65.94611826 112.02895882 51.33890724 97.44253159 C44.27487293 90.38881499 37.20897369 83.33698559 30.13867188 76.28955078 C23.9770491 70.14784668 17.8189361 64.00264893 11.66503274 57.85320973 C8.40571492 54.59650186 5.14465269 51.34158453 1.87938309 48.0908432 C-1.19301249 45.03200742 -4.26069854 41.96852732 -7.32481575 38.90139961 C-8.45101042 37.77575582 -9.5789242 36.65182897 -10.70866585 35.5297451 C-12.24967529 33.99867171 -13.7844066 32.46156705 -15.31771851 30.92279053 C-16.60915048 29.63412394 -16.60915048 29.63412394 -17.92667198 28.31942368 C-22.32149759 23.40295002 -22.43781057 19.35189309 -22.3125 12.9140625 C-21.74397844 7.61259899 -19.22134216 5.16027505 -15.5 1.625 C-10.44221514 -0.72325726 -5.48314207 -0.97097307 0 0 Z " fill="#000000" transform="translate(294,96)"/>
</svg>
