<?xml version="1.0" standalone="no"?>
<!DOCTYPE svg PUBLIC "-//W3C//DTD SVG 20010904//EN"
 "http://www.w3.org/TR/2001/REC-SVG-20010904/DTD/svg10.dtd">
<svg version="1.0" xmlns="http://www.w3.org/2000/svg"
 width="512.000000pt" height="512.000000pt" viewBox="0 0 512.000000 512.000000"
 preserveAspectRatio="xMidYMid meet">

<g transform="translate(0.000000,512.000000) scale(0.100000,-0.100000)"
fill="#000000" stroke="none">
<path d="M534 5060 c-12 -5 -29 -19 -38 -32 -15 -20 -16 -161 -16 -1525 l0
-1504 -202 -251 c-111 -138 -207 -264 -215 -279 -11 -22 -13 -150 -11 -698 l3
-670 23 -23 23 -23 2459 0 2459 0 23 23 23 23 3 659 c1 363 -1 673 -5 690 -5
16 -101 146 -215 290 l-208 261 0 1504 0 1504 -24 28 -24 28 -2019 2 c-1124 1
-2027 -2 -2039 -7z m3946 -1845 l0 -1695 -135 0 -135 0 0 1535 0 1536 -25 24
-24 25 -706 0 -707 0 -29 -29 -29 -29 0 -1531 0 -1531 -130 0 -130 0 -2 1536
-3 1536 -28 24 -28 24 -705 0 -705 0 -24 -25 -25 -24 0 -1536 0 -1535 -135 0
-135 0 0 1695 0 1695 1920 0 1920 0 0 -1695z m-2210 -215 l0 -1480 -600 0
-600 0 0 1480 0 1480 600 0 600 0 0 -1480z m1780 0 l0 -1480 -600 0 -600 0 0
1480 0 1480 600 0 600 0 0 -1480z m-3570 -1370 l0 -110 -86 0 c-47 0 -84 4
-82 8 3 9 161 211 166 212 1 0 2 -49 2 -110z m4330 -105 c0 -3 -38 -5 -85 -5
l-85 0 0 111 0 111 85 -106 c47 -58 85 -108 85 -111z m-4330 -376 l0 -211
-126 -231 c-69 -128 -130 -236 -135 -242 -5 -5 -9 171 -9 443 l0 452 135 0
135 0 0 -211z m320 31 l0 -180 -80 0 -80 0 0 180 0 180 80 0 80 0 0 -180z
m840 0 l0 -180 -340 0 -340 0 0 180 0 180 340 0 340 0 0 -180z m840 0 l0 -180
-340 0 -340 0 0 180 0 180 340 0 340 0 0 -180z m840 0 l0 -180 -340 0 -340 0
0 180 0 180 340 0 340 0 0 -180z m840 0 l0 -180 -340 0 -340 0 0 180 0 180
340 0 340 0 0 -180z m320 0 l0 -180 -80 0 -80 0 0 180 0 180 80 0 80 0 0 -180z
m430 -272 c0 -272 -4 -448 -9 -443 -5 6 -66 114 -135 242 l-126 231 0 211 0
211 135 0 135 0 0 -452z m-4110 -383 l0 -315 -265 0 c-146 0 -265 2 -265 4 0
5 271 505 316 584 l25 42 94 0 95 0 0 -315z m840 0 l0 -315 -340 0 -340 0 0
315 0 315 340 0 340 0 0 -315z m840 0 l0 -315 -340 0 -340 0 0 315 0 315 340
0 340 0 0 -315z m840 0 l0 -315 -340 0 -340 0 0 315 0 315 340 0 340 0 0 -315z
m840 0 l0 -315 -340 0 -340 0 0 315 0 315 340 0 340 0 0 -315z m518 10 c90
-165 166 -306 169 -313 4 -10 -49 -12 -258 -10 l-264 3 -3 313 -2 313 97 -3
98 -3 163 -300z"/>
</g>
</svg>
