<svg width="24" height="24" viewBox="0 0 24 24" fill="none" xmlns="http://www.w3.org/2000/svg">
<path d="M2 17V7C2 5.9 2.9 5 4 5H20C21.1 5 22 5.9 22 7V17" stroke="currentColor" stroke-width="1.5" stroke-linecap="round" stroke-linejoin="round"/>
<path d="M2 12H22V17C22 18.1 21.1 19 20 19H4C2.9 19 2 18.1 2 17V12Z" stroke="currentColor" stroke-width="1.5" stroke-linecap="round" stroke-linejoin="round"/>
<path d="M6 12V9C6 8.45 6.45 8 7 8H10C10.55 8 11 8.45 11 9V12" stroke="currentColor" stroke-width="1.5" stroke-linecap="round" stroke-linejoin="round"/>
<path d="M13 12V9C13 8.45 13.45 8 14 8H17C17.55 8 18 8.45 18 9V12" stroke="currentColor" stroke-width="1.5" stroke-linecap="round" stroke-linejoin="round"/>
</svg>
