<svg width="24" height="24" viewBox="0 0 24 24" fill="none" xmlns="http://www.w3.org/2000/svg">
  <path d="M6.76 22H17.24C20 22 21.1 20.31 21.23 18.25L21.75 9.99C21.89 7.83 20.17 6 18 6C17.39 6 16.83 5.65 16.55 5.11L15.83 3.66C15.37 2.75 14.17 2 13.15 2H10.86C9.83 2 8.63 2.75 8.17 3.66L7.45 5.11C7.17 5.65 6.61 6 6 6C3.83 6 2.11 7.83 2.25 9.99L2.77 18.25C2.89 20.31 4 22 6.76 22Z" stroke="currentColor" stroke-width="1.5" stroke-linecap="round" stroke-linejoin="round"/>
  <path d="M10.5 8H13.5" stroke="currentColor" stroke-width="1.5" stroke-linecap="round" stroke-linejoin="round"/>
  <path d="M12 18C14.21 18 16 16.21 16 14C16 11.79 14.21 10 12 10C9.79 10 8 11.79 8 14C8 16.21 9.79 18 12 18Z" stroke="currentColor" stroke-width="1.5" stroke-linecap="round" stroke-linejoin="round"/>
</svg>
