<?xml version="1.0" standalone="no"?>
<!DOCTYPE svg PUBLIC "-//W3C//DTD SVG 20010904//EN"
 "http://www.w3.org/TR/2001/REC-SVG-20010904/DTD/svg10.dtd">
<svg version="1.0" xmlns="http://www.w3.org/2000/svg"
 width="512.000000pt" height="512.000000pt" viewBox="0 0 512.000000 512.000000"
 preserveAspectRatio="xMidYMid meet">

<g transform="translate(0.000000,512.000000) scale(0.100000,-0.100000)"
fill="#000000" stroke="none">
<path d="M543 4945 c-182 -49 -320 -189 -368 -372 -23 -86 -23 -3940 0 -4026
48 -185 187 -324 372 -372 50 -13 313 -15 2013 -15 1724 0 1963 2 2015 15 180
47 323 188 370 366 22 81 22 3957 0 4038 -35 131 -142 267 -255 323 -124 62
12 58 -2135 57 -1652 0 -1968 -3 -2012 -14z m4042 -154 c82 -33 173 -124 206
-206 l24 -60 0 -1965 0 -1965 -24 -60 c-34 -83 -124 -173 -206 -205 -49 -18
-86 -23 -207 -28 l-148 -5 0 1520 c0 1683 4 1586 -65 1690 -45 67 -113 117
-194 143 -62 20 -90 20 -1405 20 -1492 0 -1411 4 -1516 -68 -31 -21 -71 -61
-92 -92 -72 -106 -68 -4 -68 -1693 l0 -1520 -147 5 c-122 5 -159 10 -208 28
-82 32 -172 122 -206 205 l-24 60 0 1965 0 1965 23 57 c43 106 147 197 256
224 40 10 469 12 1996 11 l1945 -2 60 -24z m-2097 -2878 l-3 -1608 -722 -3
-723 -2 0 1525 c0 1357 2 1530 16 1563 20 49 60 90 109 113 38 17 78 19 683
19 l642 0 -2 -1607z m1467 1588 c49 -23 89 -64 109 -113 14 -33 16 -206 16
-1563 l0 -1525 -722 2 -723 3 -3 1608 -2 1607 642 0 c605 0 645 -2 683 -19z"/>
<path d="M1815 4539 c-186 -24 -307 -220 -249 -405 14 -47 30 -72 78 -120 70
-69 126 -94 215 -94 74 0 119 14 177 53 158 106 185 325 58 466 -72 80 -168
114 -279 100z m125 -161 c111 -56 120 -215 17 -285 -126 -85 -296 31 -257 177
30 110 138 159 240 108z"/>
<path d="M3210 4539 c-65 -10 -112 -32 -159 -75 -90 -80 -125 -192 -97 -303
37 -143 138 -229 282 -239 106 -7 163 16 240 92 47 48 64 73 78 120 70 224
-113 439 -344 405z m113 -153 c72 -30 117 -121 97 -196 -40 -147 -235 -172
-309 -39 -76 135 69 295 212 235z"/>
<path d="M1520 2712 c-22 -11 -44 -35 -57 -62 -23 -44 -23 -49 -23 -451 l0
-406 -45 -17 c-25 -10 -54 -31 -66 -48 -28 -39 -36 -106 -16 -144 25 -48 345
-446 375 -466 33 -22 102 -23 142 -3 26 13 350 410 379 463 40 75 -7 180 -91
203 l-38 10 0 412 c0 454 0 455 -63 501 -26 19 -44 21 -245 24 -196 2 -220 1
-252 -16z m420 -554 c5 -412 6 -428 26 -455 17 -24 63 -54 99 -66 5 -2 -59
-90 -144 -196 -84 -105 -157 -191 -162 -189 -4 2 -75 88 -158 193 l-150 189
51 26 c90 44 88 31 88 507 l0 412 38 4 c20 2 98 3 172 3 l135 -1 5 -427z"/>
<path d="M3292 2713 c-44 -24 -379 -445 -392 -493 -10 -38 -3 -79 21 -119 15
-24 78 -61 104 -61 13 0 15 -48 15 -415 0 -449 -1 -443 55 -495 27 -25 27 -25
253 -28 214 -2 229 -1 260 18 19 12 41 39 52 63 18 39 20 69 20 448 l0 406 39
12 c76 22 118 107 90 183 -18 49 -342 454 -383 479 -39 24 -91 24 -134 2z
m223 -324 c83 -105 152 -195 153 -200 2 -5 -8 -9 -21 -9 -33 0 -86 -45 -103
-87 -11 -25 -14 -119 -14 -443 l0 -410 -175 0 -175 0 0 420 c0 361 -2 425 -15
451 -17 33 -69 69 -99 69 -12 0 -16 5 -13 15 8 19 299 385 306 385 3 -1 74
-87 156 -191z"/>
</g>
</svg>
