<svg width="24" height="24" viewBox="0 0 24 24" fill="none" xmlns="http://www.w3.org/2000/svg">
  <path d="M7 3H5C3.9 3 3 3.9 3 5V7" stroke="currentColor" stroke-width="2" stroke-linecap="round" stroke-linejoin="round"/>
  <path d="M17 3H19C20.1 3 21 3.9 21 5V7" stroke="currentColor" stroke-width="2" stroke-linecap="round" stroke-linejoin="round"/>
  <path d="M7 21H5C3.9 21 3 20.1 3 19V17" stroke="currentColor" stroke-width="2" stroke-linecap="round" stroke-linejoin="round"/>
  <path d="M17 21H19C20.1 21 21 20.1 21 19V17" stroke="currentColor" stroke-width="2" stroke-linecap="round" stroke-linejoin="round"/>
  <path d="M8 10V9" stroke="currentColor" stroke-width="2" stroke-linecap="round"/>
  <path d="M16 10V9" stroke="currentColor" stroke-width="2" stroke-linecap="round"/>
  <path d="M9 16C9.83 16.63 10.87 17 12 17C13.13 17 14.17 16.63 15 16" stroke="currentColor" stroke-width="2" stroke-linecap="round"/>
  <path d="M12 10V13H13" stroke="currentColor" stroke-width="2" stroke-linecap="round" stroke-linejoin="round"/>
</svg>
