<svg width="24" height="24" viewBox="0 0 24 24" fill="none" xmlns="http://www.w3.org/2000/svg">
  <path d="M12 2C6.49 2 2 6.49 2 12C2 17.51 6.49 22 12 22C17.51 22 22 17.51 22 12C22 6.49 17.51 2 12 2ZM12.75 16.5C12.75 16.91 12.41 17.25 12 17.25C11.59 17.25 11.25 16.91 11.25 16.5V15C11.25 14.59 11.59 14.25 12 14.25C12.41 14.25 12.75 14.59 12.75 15V16.5ZM13.26 11.57C12.88 11.81 12.75 11.95 12.75 12.25V12.75C12.75 13.16 12.41 13.5 12 13.5C11.59 13.5 11.25 13.16 11.25 12.75V12.25C11.25 11.15 12.1 10.57 12.42 10.36C12.79 10.13 12.93 9.99 12.93 9.71C12.93 9.19 12.52 8.78 12 8.78C11.48 8.78 11.07 9.19 11.07 9.71C11.07 10.12 10.73 10.46 10.32 10.46C9.91 10.46 9.57 10.12 9.57 9.71C9.57 8.37 10.66 7.28 12 7.28C13.34 7.28 14.43 8.37 14.43 9.71C14.43 10.8 13.59 11.35 13.26 11.57Z" fill="currentColor"/>
</svg>
