<?xml version="1.0" standalone="no"?>
<!DOCTYPE svg PUBLIC "-//W3C//DTD SVG 20010904//EN"
 "http://www.w3.org/TR/2001/REC-SVG-20010904/DTD/svg10.dtd">
<svg version="1.0" xmlns="http://www.w3.org/2000/svg"
 width="512.000000pt" height="512.000000pt" viewBox="0 0 512.000000 512.000000"
 preserveAspectRatio="xMidYMid meet">

<g transform="translate(0.000000,512.000000) scale(0.100000,-0.100000)"
fill="#000000" stroke="none">
<path d="M1260 4007 c-139 -33 -258 -142 -304 -279 -5 -15 -18 -18 -95 -18
-196 0 -344 -90 -423 -257 -35 -74 -48 -151 -48 -294 l0 -106 -82 -5 c-100 -6
-163 -34 -224 -100 -73 -79 -79 -108 -79 -393 l0 -250 28 -56 c55 -112 164
-179 292 -179 l65 0 0 -107 c0 -145 13 -222 48 -296 79 -167 227 -257 423
-257 77 0 90 -3 95 -18 48 -145 177 -256 325 -282 212 -37 423 107 468 318 7
34 11 184 11 412 l0 360 699 0 c652 0 700 1 720 18 30 24 31 76 2 105 l-22 22
-699 3 -700 2 0 210 0 210 800 0 800 0 0 -645 c0 -439 4 -661 11 -697 17 -78
54 -144 115 -205 214 -215 581 -123 678 170 5 14 18 17 95 17 196 0 344 90
423 257 35 74 48 151 48 296 l0 107 65 0 c128 0 237 67 292 179 l28 56 0 250
c0 285 -6 314 -79 393 -61 66 -124 94 -224 100 l-82 5 0 106 c0 143 -13 220
-48 294 -79 167 -227 257 -423 257 -77 0 -90 3 -95 18 -48 145 -177 256 -325
282 -212 37 -423 -107 -468 -318 -7 -34 -11 -184 -11 -412 l0 -360 -800 0
-800 0 0 360 c0 227 -4 378 -11 412 -47 220 -272 365 -489 315z m209 -170 c24
-12 59 -39 77 -61 67 -79 64 -14 64 -1216 0 -1202 3 -1137 -64 -1216 -50 -58
-117 -88 -196 -88 -36 1 -81 8 -101 16 -50 22 -106 74 -132 122 -22 41 -22 41
-27 854 l-5 814 -24 19 c-31 25 -69 24 -98 -3 l-23 -21 0 -749 0 -748 -82 0
c-70 0 -92 4 -143 28 -67 32 -117 83 -149 151 -21 46 -21 54 -21 821 0 767 0
775 21 821 32 68 82 119 149 151 51 24 73 28 143 28 l82 0 0 -115 c0 -131 11
-155 73 -155 65 0 71 19 77 219 6 214 16 240 123 321 57 43 177 46 256 7z
m2406 9 c50 -21 106 -77 131 -131 l24 -50 0 -1105 0 -1105 -24 -50 c-25 -55
-80 -109 -135 -133 -20 -8 -65 -15 -101 -16 -79 0 -146 30 -196 88 -67 79 -64
14 -64 1217 0 1184 -3 1129 56 1206 31 41 91 80 142 93 44 11 123 4 167 -14z
m530 -314 c67 -32 117 -83 149 -151 21 -46 21 -54 21 -821 0 -767 0 -775 -21
-821 -32 -68 -82 -119 -149 -151 -51 -24 -73 -28 -142 -28 l-83 0 0 1000 0
1000 83 0 c69 0 91 -4 142 -28z m-4015 -972 l0 -340 -55 0 c-72 0 -116 19
-151 66 l-29 37 0 237 0 237 29 37 c36 48 75 65 149 66 l57 0 0 -340z m4484
326 c18 -8 46 -31 62 -52 l29 -37 0 -237 0 -237 -29 -37 c-35 -47 -79 -66
-151 -66 l-55 0 0 340 0 340 55 0 c31 0 71 -6 89 -14z"/>
</g>
</svg>
