<svg width="80" height="80" viewBox="0 0 80 80" fill="none" xmlns="http://www.w3.org/2000/svg">
<path d="M40.0003 13.4284C47.8333 7.06667 59.9333 7.3 67.4753 14.8578C75.0177 22.4157 75.277 34.4567 68.2623 43.31L39.9997 71.6167L11.7373 43.31C4.72267 34.4567 4.98534 23.3967 12.5247 14.8578C20.0703 6.31047 32.1503 6.0562 40.0003 13.4284ZM62.7567 20.5671C57.7597 15.5598 49.6923 15.3567 44.4567 20.0562L40.0067 24.0508L35.5537 20.0595C30.3033 15.3533 22.2503 15.5603 17.2387 20.5719C12.2727 25.5377 12.0237 33.4911 16.6003 38.7443L39.9997 62.181L63.4003 38.7443C68.1117 33.4889 67.7303 25.5508 62.7567 20.5671Z" fill="currentColor"/>
</svg>
