<?xml version="1.0" standalone="no"?>
<!DOCTYPE svg PUBLIC "-//W3C//DTD SVG 20010904//EN"
 "http://www.w3.org/TR/2001/REC-SVG-20010904/DTD/svg10.dtd">
<svg version="1.0" xmlns="http://www.w3.org/2000/svg"
 width="512.000000pt" height="512.000000pt" viewBox="0 0 512.000000 512.000000"
 preserveAspectRatio="xMidYMid meet">

<g transform="translate(0.000000,512.000000) scale(0.100000,-0.100000)"
fill="#000000" stroke="none">
<path d="M1459 4561 c-103 -33 -191 -110 -235 -206 -26 -56 -1064 -3691 -1064
-3725 0 -31 44 -70 78 -70 57 0 68 20 135 255 l63 220 558 3 c528 2 557 1 552
-15 -54 -183 -106 -376 -106 -393 0 -31 44 -70 78 -70 64 0 55 -25 329 935
141 495 259 903 262 907 4 4 199 -401 435 -900 235 -499 437 -915 448 -924 19
-17 80 -18 970 -18 l949 0 24 25 c25 24 25 26 25 213 0 252 13 235 -195 242
l-157 5 -659 1395 c-362 767 -659 1402 -659 1410 0 8 14 62 30 120 51 178 50
260 -7 373 -55 111 -143 175 -289 213 -135 35 -232 31 -327 -14 -77 -36 -154
-108 -186 -176 -12 -24 -68 -205 -124 -403 l-103 -358 -80 -3 -81 -3 -51 107
c-29 58 -55 116 -58 129 -3 13 8 73 26 135 39 138 46 202 30 271 -40 168 -143
268 -325 314 -115 29 -207 31 -286 6z m234 -157 c93 -21 116 -34 165 -89 29
-33 44 -62 53 -101 13 -59 9 -90 -32 -226 l-20 -68 -299 0 c-197 0 -300 4
-300 10 0 22 94 327 110 360 23 45 76 95 120 114 46 20 114 20 203 0z m1280 0
c93 -21 116 -34 165 -89 29 -33 44 -62 53 -101 13 -59 9 -90 -32 -226 l-20
-68 -300 0 c-237 0 -300 3 -296 13 2 6 25 86 51 177 49 173 73 222 128 263 67
49 132 58 251 31z m-431 -2069 c368 -781 679 -1428 690 -1437 17 -15 41 -18
154 -18 l134 0 0 -80 0 -80 -216 2 -216 3 -667 1415 c-367 778 -677 1425 -689
1438 -21 22 -24 22 -295 22 l-274 0 18 68 c11 37 21 73 24 80 3 10 76 12 336
10 l331 -3 670 -1420z m1280 0 c368 -781 679 -1428 690 -1437 17 -15 41 -18
154 -18 l134 0 0 -80 0 -80 -216 2 -216 3 -667 1415 c-367 778 -677 1425 -689
1438 -21 22 -24 22 -293 22 -213 0 -270 3 -267 13 3 6 13 42 23 80 l18 67 329
-2 330 -3 670 -1420z m-2117 945 l72 -155 -370 -3 c-204 -1 -372 0 -374 2 -4
4 74 292 84 309 2 4 119 6 260 5 l255 -3 73 -155z m1846 -1199 c351 -744 639
-1355 639 -1357 0 -2 -115 -4 -255 -4 l-255 0 0 134 c0 187 8 180 -195 186
l-157 5 -564 1195 c-310 656 -564 1195 -564 1197 0 2 160 2 356 1 l356 -3 639
-1354z m-1623 727 c40 -84 72 -156 72 -160 0 -5 -250 -8 -556 -8 l-555 0 6 21
c9 29 85 293 85 296 0 2 197 3 438 3 l438 0 72 -152z m32 -335 c0 -5 -20 -75
-44 -158 l-43 -150 -557 -3 c-306 -1 -556 1 -556 5 0 5 19 77 42 161 l42 152
558 0 c307 0 558 -3 558 -7z m-140 -480 c0 -5 -19 -77 -42 -160 l-43 -153
-557 0 c-307 0 -558 2 -558 4 0 4 79 286 85 304 3 9 124 12 560 12 305 0 555
-3 555 -7z m-151 -540 c-10 -38 -31 -110 -45 -160 l-27 -93 -558 0 -558 0 20
68 c10 37 31 109 45 160 l27 92 558 0 558 0 -20 -67z"/>
</g>
</svg>
