<?xml version="1.0" standalone="no"?>
<!DOCTYPE svg PUBLIC "-//W3C//DTD SVG 20010904//EN"
 "http://www.w3.org/TR/2001/REC-SVG-20010904/DTD/svg10.dtd">
<svg version="1.0" xmlns="http://www.w3.org/2000/svg"
 width="512.000000pt" height="512.000000pt" viewBox="0 0 512.000000 512.000000"
 preserveAspectRatio="xMidYMid meet">

<g transform="translate(0.000000,512.000000) scale(0.100000,-0.100000)"
fill="#000000" stroke="none">
<path d="M3403 4363 c-28 -10 -413 -189 -854 -398 -705 -334 -809 -386 -856
-429 -125 -114 -173 -288 -123 -447 11 -35 69 -152 130 -259 60 -107 106 -197
102 -201 -4 -4 -314 -188 -689 -409 l-683 -401 -58 7 c-77 8 -122 -10 -146
-60 -22 -46 -14 -84 23 -120 25 -24 41 -29 117 -36 110 -11 173 -32 289 -99
164 -94 255 -116 453 -109 154 6 241 32 377 113 132 79 208 99 353 92 135 -5
167 -15 305 -93 53 -31 132 -68 175 -82 71 -24 91 -26 242 -27 155 0 170 2
245 28 44 16 124 53 177 84 134 75 195 93 325 93 127 0 207 -24 333 -99 47
-27 121 -63 165 -78 75 -26 90 -28 245 -28 146 0 173 3 234 23 78 26 124 48
208 98 80 49 159 74 262 84 76 7 92 12 117 36 37 36 45 74 23 120 -27 56 -67
69 -179 56 -116 -13 -222 -49 -334 -113 -129 -73 -181 -90 -292 -96 -121 -7
-220 13 -304 62 -107 63 -220 114 -285 129 -35 8 -66 19 -70 23 -13 14 -862
1258 -866 1268 -2 6 263 144 590 307 546 273 597 301 636 345 118 133 132 325
34 470 -42 61 -83 95 -160 130 -74 33 -187 40 -261 16z m204 -226 c38 -25 73
-89 73 -133 -1 -46 -35 -112 -72 -134 -18 -11 -289 -148 -603 -306 -441 -221
-578 -294 -607 -324 -54 -56 -71 -136 -44 -210 7 -19 193 -298 414 -619 221
-321 399 -587 396 -592 -3 -5 -15 -9 -27 -9 -41 -1 -158 -48 -260 -107 -118
-67 -200 -92 -310 -92 -106 -1 -198 22 -282 69 -208 119 -291 144 -475 144
-149 0 -243 -23 -360 -86 -157 -86 -206 -107 -271 -119 -92 -16 -229 -7 -304
21 -61 23 -165 80 -165 90 0 4 275 168 612 366 336 197 626 374 645 392 46 45
69 127 53 189 -6 25 -61 134 -123 242 -61 108 -117 214 -125 236 -24 69 3 169
60 222 17 17 1502 729 1638 786 27 12 103 -3 137 -26z"/>
<path d="M3930 3460 c-163 -23 -313 -100 -435 -224 -91 -93 -137 -164 -177
-277 -94 -267 -34 -561 157 -767 153 -165 338 -246 560 -245 124 0 211 18 309
62 365 165 540 574 407 951 -102 287 -364 484 -672 503 -46 3 -113 1 -149 -3z
m244 -226 c185 -48 343 -205 391 -389 19 -76 19 -204 0 -280 -48 -182 -197
-333 -384 -389 -69 -20 -208 -21 -286 -1 -183 48 -342 207 -390 390 -32 126
-14 283 48 400 40 75 144 180 217 220 118 63 276 82 404 49z"/>
<path d="M257 1150 c-37 -30 -52 -80 -34 -122 21 -50 39 -60 130 -69 103 -10
197 -39 260 -79 139 -88 258 -129 402 -137 177 -10 315 24 468 114 136 81 189
97 327 97 137 1 181 -11 322 -91 117 -66 179 -90 276 -109 199 -38 389 -2 581
110 98 57 183 85 279 92 120 9 203 -13 363 -95 183 -94 259 -115 419 -115 174
-1 283 30 440 124 85 51 171 78 275 89 93 9 111 19 132 69 18 42 3 92 -34 122
-20 16 -41 20 -97 20 -116 0 -224 -32 -371 -109 -157 -84 -223 -104 -335 -105
-134 -1 -176 13 -392 126 -126 66 -203 83 -373 83 -131 -1 -146 -3 -235 -33
-52 -18 -133 -56 -181 -83 -237 -137 -427 -130 -681 24 -32 19 -97 47 -145 63
-82 27 -99 29 -243 29 -141 -1 -162 -3 -235 -28 -44 -14 -125 -52 -180 -83
-140 -81 -195 -97 -330 -97 -126 0 -200 20 -297 79 -149 91 -282 134 -414 134
-56 0 -77 -4 -97 -20z"/>
</g>
</svg>
