<?xml version="1.0" encoding="UTF-8"?>
<svg version="1.1" xmlns="http://www.w3.org/2000/svg" width="512" height="512">
<path d="M0 0 C7.15811509 5.13749629 14.71675428 9.62148369 22.3203125 14.0625 C23.55297852 14.78373047 23.55297852 14.78373047 24.81054688 15.51953125 C59.50109577 35.6077177 98.7720412 50.53269012 139.171875 52.296875 C140.38315063 52.35065308 140.38315063 52.35065308 141.61889648 52.40551758 C143.16477998 52.46665778 144.71128287 52.51427243 146.25805664 52.5456543 C151.86676096 52.74369905 155.90957475 53.93507545 160.1484375 57.67578125 C160.61765625 58.23652344 161.086875 58.79726562 161.5703125 59.375 C162.04984375 59.92800781 162.529375 60.48101562 163.0234375 61.05078125 C166.3026023 66.1374375 166.58580459 71.23622103 166.40234375 77.125 C166.38570175 77.90058258 166.36905975 78.67616516 166.35191345 79.47525024 C166.29222856 82.0048903 166.21427701 84.53347295 166.1328125 87.0625 C166.10731323 87.93219421 166.08181396 88.80188843 166.05554199 89.69793701 C163.90976674 161.16208091 146.40532675 232.78220766 100.3203125 289.0625 C99.59134766 289.95485352 99.59134766 289.95485352 98.84765625 290.86523438 C90.87499306 300.56494586 82.80323399 310.36445643 73.171875 318.4609375 C71.3459473 320.04032644 69.68225676 321.6995697 68.0078125 323.4375 C63.4509725 328.05605792 58.39761258 332.03521748 53.3203125 336.0625 C51.90492188 337.20332031 51.90492188 337.20332031 50.4609375 338.3671875 C34.87963079 350.67884177 18.0670357 361.25258517 0.66210938 370.77880859 C-0.82841997 371.59586482 -2.31463968 372.42086982 -3.79492188 373.25634766 C-17.84034198 381.17698631 -17.84034198 381.17698631 -25.6796875 379.0625 C-31.25168834 376.80139821 -36.44307528 374.0058728 -41.6796875 371.0625 C-42.81253174 370.43625732 -42.81253174 370.43625732 -43.96826172 369.79736328 C-67.67994597 356.64847243 -89.99795793 341.17792516 -109.796875 322.60400391 C-112.5188044 320.03144861 -112.5188044 320.03144861 -115.6796875 318.0625 C-115.6796875 317.4025 -115.6796875 316.7425 -115.6796875 316.0625 C-116.27193115 315.79856445 -116.8641748 315.53462891 -117.47436523 315.26269531 C-119.76915461 314.01380961 -121.18043713 312.7542538 -122.96484375 310.859375 C-123.57223389 310.21621338 -124.17962402 309.57305176 -124.80541992 308.91040039 C-125.44455322 308.21809326 -126.08368652 307.52578613 -126.7421875 306.8125 C-127.40903564 306.09376709 -128.07588379 305.37503418 -128.76293945 304.63452148 C-134.79700276 298.05868896 -140.38104573 291.24013343 -145.6796875 284.0625 C-146.15470703 283.4226416 -146.62972656 282.7827832 -147.11914062 282.12353516 C-189.34528816 224.86231993 -205.28186225 157.3850977 -207.5546875 87.1875 C-207.58655151 86.33939758 -207.61841553 85.49129517 -207.65124512 84.61749268 C-207.73843918 82.18522798 -207.80251966 79.75345484 -207.859375 77.3203125 C-207.88718048 76.60379517 -207.91498596 75.88727783 -207.94363403 75.14904785 C-208.04510033 68.66093224 -206.51671973 63.29672839 -202.3671875 58.25 C-195.53598376 52.68971789 -189.43838997 52.55623552 -180.9296875 52.1875 C-144.65685619 50.06019277 -110.53272641 38.88886374 -78.49023438 22.01269531 C-76.68081313 21.06309074 -74.86127632 20.1357159 -73.0390625 19.2109375 C-60.53343439 12.79065967 -48.53628432 5.33319233 -37.13256836 -2.88378906 C-22.64431961 -13.29445508 -13.46693903 -9.68723681 0 0 Z M-39.6796875 94.0625 C-41.02933594 94.66578125 -41.02933594 94.66578125 -42.40625 95.28125 C-54.0048358 101.03261486 -60.84619823 109.13549406 -65.6796875 121.0625 C-67.05626511 125.19223283 -67.64328059 128.5517631 -67.953125 132.8984375 C-68.80050519 143.98074113 -68.80050519 143.98074113 -71.375 147.1484375 C-73.4296875 148.5625 -73.4296875 148.5625 -75.578125 149.78125 C-80.14715706 152.56683089 -82.92511558 157.30183218 -84.9921875 162.125 C-86.27423434 167.60283648 -86.80532525 172.95495041 -86.82495117 178.57348633 C-86.83452095 180.44627007 -86.83452095 180.44627007 -86.84428406 182.35688782 C-86.84581326 183.70276856 -86.84692694 185.04864983 -86.84765625 186.39453125 C-86.85087576 187.79546644 -86.85424034 189.1964013 -86.85774231 190.59733582 C-86.86370933 193.52656838 -86.86558473 196.45577155 -86.86499023 199.38500977 C-86.86488879 203.11347861 -86.87853381 206.84175629 -86.89576244 210.57017994 C-86.90695547 213.46234479 -86.90890721 216.3544645 -86.90838051 219.24664879 C-86.90954992 220.61997829 -86.91391237 221.99330936 -86.92171288 223.3666172 C-86.98028273 234.74308794 -87.00715181 247.04633209 -78.95703125 255.97265625 C-70.25952775 264.11683945 -61.16723339 266.17150235 -49.43432617 266.20776367 C-48.40350166 266.21280159 -48.40350166 266.21280159 -47.35185242 266.21794128 C-45.10043484 266.22736933 -42.84909229 266.22939029 -40.59765625 266.23046875 C-39.01735912 266.2336871 -37.43706227 266.2370516 -35.85676575 266.24055481 C-32.55090647 266.24652581 -29.24507326 266.24839681 -25.93920898 266.24780273 C-21.72647596 266.24770125 -17.51391201 266.26134797 -13.30121899 266.27857494 C-10.03846994 266.28975494 -6.775761 266.2917201 -3.51299477 266.29119301 C-1.96103648 266.29236431 -0.40907687 266.29673769 1.14286232 266.30452538 C19.43811487 266.55293499 19.43811487 266.55293499 35.23046875 258.33984375 C43.14148822 249.89134525 45.4256486 240.98203298 45.46557617 229.55151367 C45.47195602 228.30299118 45.47833588 227.05446869 45.48490906 225.76811218 C45.48643826 224.42223144 45.48755194 223.07635017 45.48828125 221.73046875 C45.49150076 220.32953356 45.49486534 218.9285987 45.49836731 217.52766418 C45.50433433 214.59843162 45.50620973 211.66922845 45.50561523 208.73999023 C45.50551379 205.01152139 45.51915881 201.28324371 45.53638744 197.55482006 C45.54758047 194.66265521 45.54953221 191.7705355 45.54900551 188.87835121 C45.55017492 187.50502171 45.55453737 186.13169064 45.56233788 184.7583828 C45.62437198 172.70902547 45.45011114 160.38033729 36.54296875 151.23828125 C33.91788116 148.94618575 31.22195035 146.99692523 28.3203125 145.0625 C27.76782227 143.06640625 27.76782227 143.06640625 27.51171875 140.625 C27.40690186 139.73449951 27.30208496 138.84399902 27.1940918 137.92651367 C27.09136963 136.98138916 26.98864746 136.03626465 26.8828125 135.0625 C24.96666128 119.95325983 20.47009035 109.91615449 8.74609375 99.88671875 C-0.06640008 93.25960986 -9.67127159 90.66840644 -20.5546875 90.75 C-21.34625244 90.75563965 -22.13781738 90.7612793 -22.95336914 90.76708984 C-28.95528632 90.8915266 -34.15919151 91.57545061 -39.6796875 94.0625 Z " fill="#000000" transform="translate(276.6796875,77.9375)"/>
<path d="M0 0 C3.5625 0.3125 3.5625 0.3125 5.21655273 1.58691406 C6.72671859 3.52303819 7.17369245 4.84008301 7.66015625 7.234375 C7.82088623 8.00507324 7.98161621 8.77577148 8.1472168 9.56982422 C8.30488525 10.39240723 8.46255371 11.21499023 8.625 12.0625 C8.87987183 13.33697998 8.87987183 13.33697998 9.13989258 14.63720703 C21.75816926 79.27331466 9.12563237 149.63065829 -27.6875 204.625 C-29.23975686 206.87942409 -30.83079391 209.09551563 -32.4375 211.3125 C-33.17355469 212.33988281 -33.90960938 213.36726562 -34.66796875 214.42578125 C-36.87181529 217.43315414 -39.13335377 220.3813752 -41.4375 223.3125 C-42.17484375 224.25609375 -42.9121875 225.1996875 -43.671875 226.171875 C-56.10179212 241.45196419 -70.63641147 256.58802617 -86.69189453 268.06298828 C-88.62300153 269.44528277 -90.52726527 270.86109733 -92.43359375 272.27734375 C-146.59013123 312.02019069 -215.89097592 327.31002961 -282.04394531 317.8515625 C-320.82177476 311.69174614 -361.31212474 297.10809935 -392.03955078 272.08178711 C-393.7325418 270.70896831 -393.7325418 270.70896831 -396.4375 269.3125 C-399.12086008 269.80352319 -399.12086008 269.80352319 -401.4375 271.3125 C-402.47583984 271.82490234 -402.47583984 271.82490234 -403.53515625 272.34765625 C-404.84816681 273.03418066 -406.16066511 273.72168565 -407.47265625 274.41015625 C-415.89045551 278.27598454 -428.91924739 277.6172101 -437.5625 274.6875 C-448.399746 269.94827622 -457.10537404 261.37139441 -461.4375 250.3125 C-465.1791912 239.0874264 -464.03487763 228.13946034 -459.4375 217.3125 C-453.91833514 207.07487814 -445.44356366 200.04813475 -434.4375 196.3125 C-423.16093887 193.52608606 -411.18954089 194.69850654 -401.16015625 200.66796875 C-399.13641196 202.11682982 -397.29045454 203.65206022 -395.4375 205.3125 C-394.82132812 205.82554687 -394.20515625 206.33859375 -393.5703125 206.8671875 C-386.08575665 213.58080197 -382.27397119 223.39434155 -381.4375 233.3125 C-381.35695732 240.80296952 -382.74661945 247.12570407 -385.59765625 254.03515625 C-386.61050183 256.37707184 -386.61050183 256.37707184 -386.4375 259.3125 C-385.04898469 260.68862915 -385.04898469 260.68862915 -383.1328125 261.87890625 C-382.05410889 262.59953247 -382.05410889 262.59953247 -380.95361328 263.3347168 C-380.1645459 263.84301025 -379.37547852 264.35130371 -378.5625 264.875 C-377.74894043 265.40585205 -376.93538086 265.9367041 -376.09716797 266.48364258 C-320.84956029 302.08966675 -255.52093333 314.56345023 -191 301.1875 C-148.61744709 291.70578815 -111.92413557 271.69556055 -79.4375 243.3125 C-78.5196875 242.5184375 -77.601875 241.724375 -76.65625 240.90625 C-72.26237501 237.04175754 -68.15309411 233.11612849 -64.390625 228.6328125 C-62.89063069 226.85081926 -61.3517653 225.10148822 -59.796875 223.3671875 C-17.16297903 175.57676954 2.53882285 111.88273694 -0.578125 48.45068359 C-1.26531124 37.57479007 -2.84577913 26.96424641 -5.20410156 16.32495117 C-6.26165108 11.35554759 -6.66894655 7.35556682 -5.4375 2.3125 C-3.4375 0.3125 -3.4375 0.3125 0 0 Z " fill="#000000" transform="translate(498.4375,191.6875)"/>
<path d="M0 0 C3.46927562 -1.6652523 6.60357528 -3.65581517 9.8046875 -5.78125 C18.41586005 -10.56182978 29.55873966 -10.23044589 39.046875 -8.41796875 C48.54078454 -5.10719456 56.49868871 2.93621915 60.89453125 11.8046875 C64.43195276 20.36557061 64.58012273 31.82337069 61.375 40.5 C56.66530208 50.31461525 49.95057826 57.14355304 39.875 61.375 C30.3897301 64.50172332 20.65765401 64.11852283 11.46484375 60.2578125 C1.99334002 55.42449364 -4.59894797 47.97220672 -8.3125 37.9765625 C-10.3227808 29.27296039 -9.81623093 19.44869279 -7 11 C-7.65226562 10.76410156 -8.30453125 10.52820312 -8.9765625 10.28515625 C-12.12346134 8.94752096 -15.03389789 7.37626807 -18.02416992 5.72583008 C-73.27067395 -24.55102128 -139.45084341 -30.85653679 -199.8503418 -13.91357422 C-216.59710259 -8.97506489 -232.60724624 -2.20817135 -248 6 C-248.64888184 6.34111816 -249.29776367 6.68223633 -249.96630859 7.03369141 C-266.46159224 15.75454193 -281.12985197 26.56368584 -295 39 C-296.04939341 39.92587845 -297.09887096 40.85166155 -298.1484375 41.77734375 C-316.84029923 58.41286227 -331.63889989 78.31385945 -344 100 C-344.39380859 100.680625 -344.78761719 101.36125 -345.19335938 102.0625 C-371.43801896 147.78183998 -379.31304037 201.3679167 -372.65625 253.12890625 C-371.00708735 266.6496388 -371.00708735 266.6496388 -373.5625 270.125 C-376.95585133 271.34312612 -379.52449066 270.7352039 -383 270 C-401.47499248 222.13297403 -385.85699117 156.87935641 -366 112 C-352.34278536 81.70059442 -331.62493004 51.13698961 -305.9296875 29.62109375 C-303.89334677 27.91040265 -301.95454727 26.11584644 -300 24.3125 C-224.97729129 -42.03411315 -112.95429413 -54.72005969 0 0 Z " fill="#000000" transform="translate(389,37)"/>
<path d="M0 0 C7.03510638 5.89906698 11.04040834 12.20069586 13.26171875 21.0859375 C13.26171875 25.3759375 13.26171875 29.6659375 13.26171875 34.0859375 C-10.49828125 34.0859375 -34.25828125 34.0859375 -58.73828125 34.0859375 C-58.73828125 21.8520052 -57.93901108 12.41558065 -49.2109375 3.53125 C-35.7493236 -8.73988103 -15.15831194 -10.59568167 0 0 Z " fill="#000000" transform="translate(278.73828125,185.9140625)"/>
<path d="M0 0 C3.53498362 2.22857663 5.43616035 4.15959731 7 8 C7.265625 10.3671875 7.265625 10.3671875 7.25 12.875 C7.25515625 13.69742187 7.2603125 14.51984375 7.265625 15.3671875 C7 18 7 18 5.92724609 20.79931641 C4.89191904 24.37307568 5.08945643 26.24748838 5.8984375 29.84375 C6.13046875 30.92527344 6.3625 32.00679688 6.6015625 33.12109375 C6.98441406 34.79365234 6.98441406 34.79365234 7.375 36.5 C7.86722837 38.71759137 8.35437878 40.93631724 8.8359375 43.15625 C9.16924072 44.62288086 9.16924072 44.62288086 9.50927734 46.11914062 C10.24220614 50.42190666 10.5270305 53.80429956 8.75 57.8359375 C4.26849778 61.36257419 -0.47029762 60.72281313 -6 60.625 C-7.6396875 60.65400391 -7.6396875 60.65400391 -9.3125 60.68359375 C-17.03349305 60.63628374 -17.03349305 60.63628374 -20.8125 58.1484375 C-24.06453195 49.52627384 -20.0323333 38.3673575 -18.19726562 29.63476562 C-18.01486328 28.70470703 -17.83246094 27.77464844 -17.64453125 26.81640625 C-17.47284424 25.98568604 -17.30115723 25.15496582 -17.12426758 24.29907227 C-16.97724535 21.57901661 -17.66167396 20.32906291 -19 18 C-19.69633388 13.09327524 -19.49572757 9.09060066 -17.4375 4.5625 C-12.14947138 -0.99670958 -7.1136976 -1.72105587 0 0 Z " fill="#000000" transform="translate(262,252)"/>
</svg>
