<?xml version="1.0" standalone="no"?>
<!DOCTYPE svg PUBLIC "-//W3C//DTD SVG 20010904//EN"
 "http://www.w3.org/TR/2001/REC-SVG-20010904/DTD/svg10.dtd">
<svg version="1.0" xmlns="http://www.w3.org/2000/svg"
 width="512.000000pt" height="512.000000pt" viewBox="0 0 512.000000 512.000000"
 preserveAspectRatio="xMidYMid meet">

<g transform="translate(0.000000,512.000000) scale(0.100000,-0.100000)"
fill="#000000" stroke="none">
<path d="M2514 4684 c-12 -3 -372 -155 -800 -338 -512 -220 -788 -343 -806
-360 -56 -54 -58 -81 -58 -640 0 -542 8 -724 41 -926 110 -689 465 -1311 994
-1744 246 -202 373 -264 583 -285 229 -24 428 32 626 174 560 402 977 1056
1115 1750 50 249 53 299 58 931 6 665 4 682 -56 741 -20 20 -256 125 -807 361
-764 326 -827 350 -890 336z m691 -718 l630 -273 3 -459 c2 -285 -1 -506 -8
-583 -45 -495 -233 -962 -546 -1351 -98 -123 -293 -313 -410 -402 -130 -97
-191 -121 -304 -121 -106 1 -175 25 -268 95 -455 343 -787 839 -921 1375 -29
114 -37 156 -62 308 -7 42 -14 283 -18 606 l-6 536 625 271 c344 149 632 271
640 271 8 1 299 -122 645 -273z"/>
</g>
</svg>
