<svg width="24" height="24" viewBox="0 0 24 24" fill="none" xmlns="http://www.w3.org/2000/svg">
<path d="M3 5C3 3.9 3.9 3 5 3H9C10.1 3 11 3.9 11 5V9C11 10.1 10.1 11 9 11H5C3.9 11 3 10.1 3 9V5Z" stroke="currentColor" stroke-width="1.5" stroke-linecap="round" stroke-linejoin="round"/>
<path d="M13 5C13 3.9 13.9 3 15 3H19C20.1 3 21 3.9 21 5V9C21 10.1 20.1 11 19 11H15C13.9 11 13 10.1 13 9V5Z" stroke="currentColor" stroke-width="1.5" stroke-linecap="round" stroke-linejoin="round"/>
<path d="M3 15C3 13.9 3.9 13 5 13H9C10.1 13 11 13.9 11 15V19C11 20.1 10.1 21 9 21H5C3.9 21 3 20.1 3 19V15Z" stroke="currentColor" stroke-width="1.5" stroke-linecap="round" stroke-linejoin="round"/>
<path d="M13 15C13 13.9 13.9 13 15 13H19C20.1 13 21 13.9 21 15V19C21 20.1 20.1 21 19 21H15C13.9 21 13 20.1 13 19V15Z" stroke="currentColor" stroke-width="1.5" stroke-linecap="round" stroke-linejoin="round"/>
</svg>
